<svg version="1.1" id="Layer_1" xmlns="http://www.w3.org/2000/svg" x="0" y="0" viewBox="0 0 100.8 100.8" xml:space="preserve"><style>.st1{fill:#fff}</style><path fill="#77bc1f" d="M100.8 100.8H0V70.4h1V50.8H0V0h100.8z"/><path class="st1" d="M92.7 42.8c-.7-1.3-1.6-2.7-2.4-3.8.5-1 1-1.9 1.3-2.9 0-.1-.1-.2-.2-.2-1.1.1-2.3.2-3.5.4-1-1-1.8-1.8-2.9-2.6l-.1-.1c-.1 0-.1 0-.2.1v.2c0 .6 0 1.7-.1 3.3-1.6.7-2.8 1.4-4.4 2.3-.1 0-.1.1-.1.2s0 .1.1.1c1.6.4 2.8.7 4.5 1.1 0 1.6.1 3.1.4 5.3v.1c0 .2.2.3.3.3.1 0 .2-.1.3-.1 1.2-1.7 1.8-2.9 2.7-4.6 1.3.3 2.6.8 3.9 1.3h.1c.1 0 .2-.1.2-.2l.1-.2M21.7 50.4c-2.2 0-4.3 1.1-6.4 3.4-1.4-2.2-3.3-3.4-5.7-3.4-1.8 0-3.7.9-5.5 2.7v-2.3H0v19.6h4.1V56.3c.8-.9 1.6-1.5 2.2-1.9.6-.3 1.3-.5 2.1-.5 1.4 0 2.3.4 2.9 1.2.6.8.8 2.3.8 4.4v10.9h4.1V56.3c1.3-1.5 2.7-2.3 4.3-2.3 1.2 0 2.1.4 2.7 1.2.6.8 1 2 1 3.6v11.5h4.1V58.9c0-2.8-.6-5-1.8-6.4-1.3-1.4-2.9-2.1-4.8-2.1M52.3 58.5c.3-1.4.8-2.5 1.6-3.3.8-.8 2-1.2 3.3-1.2 1.3 0 2.4.4 3.2 1.2.8.8 1.2 1.9 1.3 3.3h-9.4zm5-8.1c-2.7 0-5 1-6.7 2.8-1.7 1.9-2.6 4.3-2.6 7.3 0 2 .4 3.8 1.2 5.3.8 1.5 1.9 2.7 3.2 3.6 1.3.9 3.1 1.4 5.3 1.4 1.6 0 3-.2 4.1-.5 1.2-.3 2.4-.9 3.6-1.7h.1v-4.2l-.3.2c-2.1 1.5-4.4 2.3-6.9 2.3-1.8 0-3.2-.5-4.3-1.6-1.1-1-1.7-2.4-1.8-4.2h13.7v-.6c0-3-.8-5.5-2.3-7.3-1.6-1.9-3.7-2.8-6.3-2.8M81.5 51.4c-1-.6-2.2-1-3.4-1-2.1 0-3.9.9-5.6 2.6v-2.2h-4.2v19.6h4.2V56.5c1.2-1.7 2.7-2.6 4.4-2.6 1.3 0 2.3.4 2.9 1.2.6.8.9 2.2.9 4.1v11.1h4.1V59.2c0-2.4-.3-4.1-.8-5.2-.7-1.1-1.5-2-2.5-2.6M38.1 76.3c-2.1-.2-4.5-1.1-4.3-3.4.1-1.8 2.6-3.1 6.5-2.8 1.6.1 4.4.8 4.2 3.3-.2 2.6-4.1 3.1-6.4 2.9m-3-20.8c.8-.8 1.7-1.1 2.8-1.1 1.2 0 2.1.4 2.9 1.1.8.7 1.2 1.6 1.2 2.7s-.4 2-1.2 2.7c-.8.7-1.7 1.1-2.9 1.1s-2.1-.3-2.9-1-1.1-1.6-1.1-2.6c0-1.3.4-2.2 1.2-2.9m6.2 11.3c-1.7-.1-3.3-.1-4.7.2v-2c.4.1.8.1 1.3.1 2.3 0 4-.6 4.6-1 .8-.5 1.8-1.3 2.4-2.4.6-1 .9-2.1.9-3.2 0-.9-.2-1.6-.5-2.3-.3-.6-.7-1.2-1.4-2h3V50.8h-7.6c-2.8 0-5 .6-6.6 1.9-1.6 1.3-2.4 3-2.4 5.2 0 2.5 1 4.4 3 5.7V68c-2.1 1.1-3.4 2.8-3.6 4.7-.4 4.7 3.9 6.6 7.6 6.9 4 .3 11-.7 11.4-6.3.4-4.9-4.5-6.3-7.4-6.5"/></svg>