<svg xmlns="http://www.w3.org/2000/svg" viewBox="0 0 32 32"><g fill="none"><path fill="#77BC1F" d="M32 32H0v-9.651h.317v-6.222H0V0h32z"/><path fill="#FFF" d="M29 13.83a9.8 9.8 0 00-.76-1.17c.16-.3.32-.58.41-.9 0-.02-.03-.05-.06-.05-.35.03-.73.06-1.11.12-.32-.3-.58-.55-.92-.8l-.04-.03c-.03 0-.03 0-.06.03v.06c0 .19 0 .53-.03 1.02-.5.21-.89.43-1.4.7-.03 0-.03.04-.03.07 0 .03 0 .03.03.03l1.43.34c0 .49.03.95.13 1.63v.03c0 .06.06.09.1.09l.09-.03c.38-.52.57-.9.85-1.42.42.1.83.25 1.24.4h.03c.04 0 .07-.03.07-.06l.03-.06M6.9 16c-.7 0-1.37.33-2.03 1.02A2.1 2.1 0 003.05 16a2.6 2.6 0 00-1.75.81v-.69H0V22h1.3v-4.23c.26-.27.51-.45.7-.57.2-.09.42-.15.67-.15.45 0 .73.12.92.36.2.24.26.69.26 1.32V22h1.3v-4.23c.42-.45.86-.69 1.37-.69.38 0 .67.12.86.36.19.24.32.6.32 1.08v3.45H9v-3.42c0-.84-.2-1.5-.57-1.92A2.06 2.06 0 006.9 16m9.54 2.38c.1-.4.27-.73.54-.97a1.7 1.7 0 011.1-.35c.44 0 .8.12 1.08.35.26.24.4.56.43.97h-3.15zM18.12 16c-.9 0-1.68.3-2.25.82a2.87 2.87 0 00-.87 2.15 2.97 2.97 0 001.47 2.62 3.5 3.5 0 001.78.41 6 6 0 001.38-.15c.4-.09.8-.26 1.2-.5h.04v-1.23l-.1.06a4.3 4.3 0 01-2.32.67c-.6 0-1.07-.14-1.44-.47-.37-.3-.57-.7-.6-1.23H21v-.18c0-.88-.27-1.62-.77-2.15a2.78 2.78 0 00-2.11-.82zm7.88.3c-.3-.18-.67-.3-1.03-.3-.64 0-1.18.27-1.7.78v-.66H22V22h1.27v-4.17c.37-.51.82-.78 1.34-.78.39 0 .7.12.87.36.19.24.28.66.28 1.23v3.33H27v-3.33c0-.72-.1-1.23-.24-1.56-.21-.33-.46-.6-.76-.78m-14.35 7.66c-.66-.07-1.41-.35-1.35-1.07.03-.56.82-.96 2.05-.87.5.03 1.38.25 1.32 1.03-.06.81-1.3.97-2.02.9m-.94-6.48c.25-.25.53-.35.88-.35.38 0 .66.13.91.35.26.21.38.5.38.84 0 .34-.12.62-.38.84-.25.22-.53.34-.9.34-.39 0-.67-.09-.92-.3-.25-.23-.35-.5-.35-.82 0-.4.13-.69.38-.9m1.95 3.52a5.7 5.7 0 00-1.48.06v-.62c.13.03.25.03.41.03.73 0 1.26-.19 1.45-.31.25-.16.57-.4.76-.75.18-.31.28-.65.28-1 0-.28-.06-.5-.16-.72-.1-.18-.22-.37-.44-.62h.95V16h-2.4c-.88 0-1.57.19-2.08.6-.5.4-.75.93-.75 1.62 0 .78.31 1.37.94 1.77v1.38c-.66.34-1.07.87-1.13 1.46-.13 1.47 1.23 2.06 2.4 2.16 1.25.09 3.46-.22 3.58-1.97.13-1.53-1.41-1.97-2.33-2.03"/></g></svg>